<?xml version="1.0" encoding="utf-8"?>
<!-- Generator: Adobe Illustrator 16.0.0, SVG Export Plug-In . SVG Version: 6.00 Build 0)  -->
<!DOCTYPE svg PUBLIC "-//W3C//DTD SVG 1.1//EN" "http://www.w3.org/Graphics/SVG/1.1/DTD/svg11.dtd">
<svg version="1.1" id="Modo_de_aislamiento" xmlns="http://www.w3.org/2000/svg" xmlns:xlink="http://www.w3.org/1999/xlink"
	 x="0px" y="0px" width="665px" height="402.579px" viewBox="0 0 665 402.579" enable-background="new 0 0 665 402.579"
	 xml:space="preserve">
<g>
	<path fill="#643910" d="M122.049,135.093c11.408,0,22.098-1.973,31.276-5.413l0.108-0.109c3.247-1.225,6.697-2.258,10.294-3.095
		c4.698-6.209,6.463-13.271,6.463-18.404c0-31.658-46.966-35.303-46.966-50.469c0-2.77,3.058-9.049,12.39-9.049
		c7.585,0,12.26,0.878,29.908,10.061l-3.227-20.274c-0.231-1.447-1.547-3.03-2.926-3.517c0,0-14.71-5.23-23.467-5.23
		c-26.691,0-34.863,20.127-34.863,30.337c0,30.487,46.103,31.224,46.103,50.475c0,6.562-5.542,10.94-13.714,10.94
		c-9.046,0-17.073-3.204-32.972-10.5v21.12c0,0.225,0.037,0.451,0.086,0.673C107.245,134.215,114.488,135.093,122.049,135.093"/>
	<path fill="#EC6D06" d="M480.699,98.857l13.557-31.463c0.58-1.346,1.529-1.346,2.109-0.004l13.62,31.468
		c0.58,1.343-0.141,2.441-1.604,2.441h-26.074C480.847,101.299,480.12,100.201,480.699,98.857 M467.32,129.612l0.106,0.052
		l3.058-7.092c0.58-1.346,2.248-2.445,3.713-2.445h42.332c1.466,0,3.141,1.099,3.72,2.443l3.907,9.026
		c1.93-0.562,3.819-1.166,5.634-1.846l0.114-0.109c5.351-2.023,11.229-3.54,17.465-4.464l-39.331-91.068
		c-0.577-1.344-2.251-2.448-3.715-2.449l-14.829-0.039c-1.462-0.003-3.137,1.092-3.718,2.432l-39.396,90.687
		C453.91,125.561,460.986,127.227,467.32,129.612"/>
	<path fill="#E30613" d="M374.664,51.014l31.716,0.069c1.462,0.002,2.655,1.201,2.655,2.663l-0.15,74.366
		c7.251-2.245,15.283-3.613,23.773-3.891l0.146-70.43c0.003-1.461,1.199-2.655,2.663-2.654l30.146,0.059
		c1.462,0.001,2.663-1.194,2.665-2.655l0.026-13.493c0.005-1.461-1.189-2.662-2.656-2.664l-85.264-0.174
		c-1.459-0.004-3.004,1.138-3.432,2.537l-4.177,13.716C372.358,49.864,373.206,51.013,374.664,51.014"/>
	<path fill="#215426" d="M301.686,124.554c-0.138-14.849-0.597-41.636-2.135-55.214l41.054,59.825
		c0.425,0.152,0.866,0.29,1.287,0.447l1.258,0.665c7.41,2.603,15.77,4.257,24.648,4.732V34.947c0-1.464-1.198-2.663-2.659-2.663
		h-16.563c-1.464,0-2.66,1.199-2.66,2.663c0,0,0,46.351,2.192,65.752l-45.596-66.65c-0.826-1.208-2.683-2.017-4.131-1.8
		l-15.887,2.412c-1.445,0.217-2.629,1.596-2.629,3.059v91.606C286.476,126.924,293.837,125.267,301.686,124.554"/>
	<path fill="#9DC41A" d="M204.648,98.857l13.557-31.463c0.58-1.346,1.528-1.346,2.11-0.004l13.617,31.469
		c0.58,1.342-0.14,2.44-1.602,2.44h-26.075C204.793,101.299,204.069,100.201,204.648,98.857 M184.961,124.152
		c2.927,0,5.805,0.133,8.622,0.384l0.847-1.964c0.581-1.345,2.249-2.445,3.716-2.445h42.33c1.466,0,3.139,1.1,3.719,2.444
		l5.433,12.547c8.702-0.18,16.937-1.505,24.361-3.752l-42.003-97.257c-0.578-1.344-2.252-2.447-3.716-2.449l-14.827-0.039
		c-1.464-0.003-3.138,1.093-3.721,2.432l-39.648,91.268C174.847,124.572,179.825,124.152,184.961,124.152"/>
	<g opacity="0.5">
		<g>
			<g>
				<defs>
					<rect id="SVGID_1_" x="100.464" y="95.339" width="444.092" height="32.78"/>
				</defs>
				<clipPath id="SVGID_2_">
					<use xlink:href="#SVGID_1_"  overflow="visible"/>
				</clipPath>
				<path clip-path="url(#SVGID_2_)" fill="#FFFFFF" d="M267.68,116.736l-1.305-3.019c-6.035,1.246-12.379,1.903-18.808,1.903
					c-10.235,0-20.337-1.648-29.22-4.768l-1.263-0.611c-0.046-0.023-0.088-0.042-0.136-0.059
					c-9.666-3.646-20.729-5.572-31.987-5.572c-2.006,0-4.002,0.083-5.989,0.202l-1.443,3.318c2.459-0.192,4.938-0.3,7.433-0.3
					c10.849,0,21.492,1.848,30.783,5.34l1.28,0.621c0.056,0.027,0.111,0.05,0.166,0.069c9.243,3.257,19.746,4.981,30.376,4.981
					C254.445,118.841,261.237,118.119,267.68,116.736 M279.866,103.82c6.569-2.452,13.824-4.064,21.354-4.799
					c-0.031-1.077-0.062-2.152-0.097-3.229c-7.464,0.713-14.665,2.279-21.257,4.625V103.82L279.866,103.82z M301.606,117.527
					c-0.015-1.051-0.032-2.13-0.048-3.235c-7.612,0.694-14.963,2.279-21.691,4.668v3.404
					C286.556,119.875,293.946,118.245,301.606,117.527 M342.406,113.764c0.066,0.035,0.138,0.066,0.206,0.09
					c7.733,2.726,16.353,4.359,25.187,4.827v-3.226c-8.43-0.459-16.64-2.018-24.009-4.602l-1.157-0.6
					c-0.058-0.028-0.111-0.055-0.172-0.077c-5.604-2.114-11.682-3.631-17.984-4.548l2.512,3.659
					c4.976,0.896,9.771,2.185,14.246,3.869L342.406,113.764z M367.798,124.731v3.224c-8.815-0.464-17.437-2.097-25.185-4.824
					c-0.072-0.025-0.144-0.054-0.215-0.093l-1.169-0.614c-2.168-0.814-4.416-1.528-6.714-2.16l-2.75-4.008
					c3.699,0.847,7.284,1.905,10.691,3.188c0.063,0.024,0.124,0.052,0.185,0.084l1.151,0.603
					C351.178,122.716,359.388,124.271,367.798,124.731 M301.378,105.038c-7.542,0.702-14.832,2.28-21.512,4.654v3.402
					c6.649-2.474,13.982-4.097,21.58-4.824C301.426,107.204,301.404,106.125,301.378,105.038 M319.955,99.045l-2.356-3.437
					c8.758,0.633,17.242,2.418,24.858,5.286c0.063,0.024,0.123,0.05,0.185,0.081l1.152,0.605c7.377,2.584,15.588,4.138,24.004,4.599
					v3.227c-8.823-0.467-17.441-2.101-25.185-4.826c-0.07-0.026-0.146-0.057-0.213-0.092l-1.171-0.614
					C334.678,101.417,327.448,99.794,319.955,99.045 M432.673,117.152l0.008-3.22c-8.261,0.267-16.337,1.569-23.773,3.818
					l-0.009,3.353C416.288,118.77,424.384,117.431,432.673,117.152 M432.698,104.655c-8.256,0.267-16.331,1.569-23.774,3.82
					l-0.005,3.353c7.395-2.334,15.489-3.675,23.772-3.953L432.698,104.655z M432.711,98.605l0.008-3.222
					c-8.27,0.265-16.346,1.566-23.774,3.808l-0.009,3.354C416.317,100.215,424.413,98.88,432.711,98.605 M530.75,113.143
					c3.223-1.2,6.617-2.203,10.122-3.005l-1.301-3.013c-3.545,0.839-6.977,1.877-10.237,3.111c-0.14,0.053-0.271,0.124-0.389,0.211
					c-9.185,3.399-19.695,5.195-30.426,5.195c-10.234,0-20.341-1.649-29.236-4.767l-1.257-0.611
					c-0.045-0.022-0.091-0.043-0.137-0.059c-4.273-1.613-8.831-2.866-13.55-3.79l-1.312,3.024c4.765,0.89,9.361,2.137,13.656,3.752
					l1.273,0.62c0.057,0.028,0.111,0.053,0.171,0.073c9.255,3.257,19.765,4.98,30.392,4.98c11.219,0,22.227-1.905,31.835-5.505
					C530.495,113.306,530.63,113.232,530.75,113.143 M466.681,103.91c-3.173-1.191-6.516-2.175-9.96-2.974l1.304-2.996
					c3.405,0.814,6.714,1.798,9.865,2.984c0.048,0.017,0.098,0.04,0.144,0.062l1.252,0.618c8.911,3.117,19.017,4.765,29.235,4.765
					c10.733,0,21.25-1.799,30.438-5.206c0.114-0.085,0.241-0.152,0.375-0.204c2.135-0.807,4.357-1.532,6.635-2.174l1.288,2.98
					c-2.237,0.619-4.422,1.323-6.518,2.108c-0.118,0.085-0.247,0.155-0.385,0.207c-9.608,3.605-20.616,5.508-31.835,5.508
					c-10.613,0-21.121-1.719-30.392-4.978c-0.061-0.019-0.121-0.045-0.178-0.075L466.681,103.91z M543.244,115.63l1.312,3.032
					c-4.833,0.887-9.478,2.131-13.812,3.751c-0.119,0.09-0.251,0.159-0.391,0.213c-2.852,1.069-5.837,1.97-8.9,2.735l-1.206-2.789
					c-0.031-0.069-0.074-0.138-0.111-0.206c3.037-0.736,5.991-1.609,8.814-2.654c0.117-0.089,0.246-0.157,0.383-0.209
					C533.71,117.847,538.384,116.562,543.244,115.63 M469.285,120.154c0.837,0.292,1.692,0.559,2.546,0.825
					c-0.591,0.428-1.087,0.984-1.349,1.594l-0.513,1.187c-0.612-0.199-1.237-0.386-1.841-0.599c-0.062-0.02-0.121-0.045-0.179-0.074
					l-1.271-0.629c-5.413-2.034-11.301-3.488-17.412-4.366l1.328-3.055c6.059,0.927,11.898,2.404,17.294,4.436
					c0.05,0.018,0.098,0.039,0.145,0.063L469.285,120.154z M152.485,101.102c-2.464,0.912-5.027,1.699-7.657,2.377
					c0.659,0.923,1.197,1.895,1.586,2.922c2.57-0.687,5.069-1.485,7.482-2.388c0.141-0.053,0.273-0.124,0.392-0.211
					c4.622-1.732,9.583-3.053,14.741-3.942c-0.315-1.059-0.697-2.076-1.127-3.063c-5.261,0.941-10.316,2.308-15.034,4.095
					C152.731,100.945,152.601,101.015,152.485,101.102 M154.299,113.071c-0.121,0.092-0.258,0.167-0.403,0.22
					c-2.663,0.998-5.444,1.85-8.297,2.585c0.707-1.104,1.174-2.358,1.396-3.724c1.866-0.534,3.705-1.111,5.479-1.769
					c0.121-0.09,0.254-0.163,0.396-0.216c5.377-2.034,11.194-3.514,17.229-4.449c0.061,0.77,0.099,1.552,0.099,2.357
					c0,0.288-0.01,0.587-0.021,0.889C164.619,109.848,159.265,111.216,154.299,113.071 M108.949,114.665
					c-2.882-0.402-5.713-0.941-8.485-1.612v3.3c6.045,1.411,12.347,2.223,18.819,2.402
					C116.227,117.722,112.857,116.368,108.949,114.665 M169.241,115.124c-5.73,0.939-11.253,2.375-16.371,4.312
					c-0.142,0.054-0.272,0.126-0.393,0.214c-9.202,3.403-19.717,5.202-30.426,5.202c-7.345,0-14.551-0.835-21.411-2.475
					c-0.061-0.018-0.119-0.01-0.177-0.018v3.277c6.936,1.612,14.194,2.437,21.588,2.437c11.203,0,22.215-1.906,31.844-5.513
					c0.145-0.053,0.276-0.126,0.398-0.216c4.348-1.624,9-2.874,13.826-3.758C168.57,117.417,168.945,116.255,169.241,115.124
					 M247.568,106.346c5.124,0,10.194-0.421,15.097-1.219l1.32,3.054c-5.322,0.916-10.843,1.387-16.417,1.387
					c-10.613,0-21.118-1.722-30.375-4.979c-0.058-0.019-0.117-0.044-0.172-0.072l-1.278-0.627c-2.715-1.017-5.552-1.875-8.466-2.609
					h10.461l0.615,0.301C227.246,104.697,237.347,106.346,247.568,106.346 M184.962,117.106c-3.927,0-7.825,0.248-11.642,0.72
					l1.474-3.394c3.351-0.347,6.746-0.547,10.168-0.547c11.253,0,22.314,1.924,31.988,5.568c0.048,0.017,0.094,0.038,0.14,0.06
					l1.214,0.595h-9.874C201.037,118.138,193.057,117.106,184.962,117.106 M184.962,98.56c6.778,0,13.479,0.722,19.821,2.115
					c-0.368-0.449-0.452-1.102-0.136-1.838l0.582-1.354c-6.497-1.408-13.347-2.143-20.268-2.143c-0.633,0-1.259,0.029-1.89,0.042
					l-1.413,3.248C182.757,98.592,183.858,98.56,184.962,98.56 M270.017,122.148c-7.103,1.8-14.721,2.751-22.449,2.751
					c-0.793,0-1.587-0.028-2.377-0.049l1.405,3.25c0.323,0.003,0.648,0.018,0.972,0.018c8.175,0,16.238-1.026,23.744-2.975
					L270.017,122.148z"/>
			</g>
		</g>
	</g>
	<path fill="#004C77" d="M199.353,138.604h-21.604c-1.517,0-3.224,1.15-3.787,2.562l-32.729,69.286l-20.252-69.723
		c-0.549-1.419-2.232-2.439-3.744-2.271l-10.637,1.153l-0.01,0.015c-1.479,0.213-3.135,1.265-3.716,2.598l-44.537,103.43
		c-0.606,1.392,0.143,2.531,1.661,2.531h20.078c1.518,0,3.253-1.144,3.855-2.537l26.201-61.104l17.668,56.977
		c0,0,2.229,2.394,3.735,2.18l15.596-2.251c1.503-0.206,3.765-2.948,3.765-2.948l27.127-53.214v60.128
		c0,1.523,1.241,2.764,2.761,2.764h18.569c1.521,0,2.762-1.238,2.762-2.764v-104.05
		C202.115,139.844,200.873,138.604,199.353,138.604"/>
	<path fill="#102D4B" d="M347.722,158.157h8.792c9.086,0,15.001,4.092,15.001,10.913c0,12.132-8.489,17.131-22.882,17.131h-0.911
		V158.157z M377.281,198.784c1.253-0.61,2.037-1.06,2.476-1.392C378.938,197.902,378.108,198.381,377.281,198.784v-0.004
		c0.979-0.525,1.914-1.136,2.853-1.741c-0.061,0.097-0.193,0.217-0.377,0.354c1.698-1.052,3.363-2.303,4.956-3.74
		c0.154-0.137,0.299-0.295,0.456-0.435c0.483-0.458,0.964-0.918,1.429-1.407c1.536-1.525,2.98-3.131,4.224-4.873
		c-0.057-0.014-0.12-0.021-0.18-0.03c3.799-5.431,6.341-11.878,6.341-18.295c0-18.937-15.619-30.009-34.113-30.009h-39.678v56.292
		v46.896v3.627c0,1.519,1.244,2.767,2.76,2.767h19.008c1.521,0,2.763-1.248,2.763-2.767v-3.627h0.001v-31.042v-2.338
		c0-2.606,3.128-2.651,3.128-2.651s3.024-0.272,4.731,2.245c8.256,12.167,18.065,25.631,30.055,36.977
		c3.578,3.391,9.152,3.203,9.152,3.203h29.474C403.198,232.118,386.377,211.975,377.281,198.784"/>
	<path fill="#004C77" d="M544.456,210.291H517.39c-1.517,0-2.268-1.143-1.669-2.54l14.072-32.655
		c0.602-1.395,1.587-1.395,2.189-0.003l14.139,32.666C546.725,209.148,545.975,210.291,544.456,210.291 M589.493,245.646
		l-45.393-105.103c-0.604-1.395-2.341-2.541-3.859-2.544l-15.391-0.037c-1.519-0.006-3.257,1.131-3.863,2.524l-45.683,105.166
		c-0.604,1.394,0.143,2.531,1.661,2.531h18.574c1.52,0,3.253-1.143,3.854-2.537l5.721-13.279c0.604-1.393,2.336-2.534,3.854-2.534
		h43.946c1.515,0,3.254,1.144,3.855,2.534l5.749,13.283c0.604,1.392,2.341,2.533,3.859,2.533h21.443
		C589.346,248.186,590.097,247.042,589.493,245.646"/>
	<path fill="#004C77" d="M499.719,155.398v-14.026c0-1.524-1.239-2.763-2.763-2.763h-88.596c-1.518,0-3.115,1.182-3.561,2.637
		l-4.309,14.267c-0.438,1.455,0.444,2.645,1.968,2.645h32.962c1.522,0,2.764,1.241,2.764,2.759v84.503
		c0,1.523,1.247,2.764,2.765,2.764h19.191c1.515,0,2.757-1.238,2.757-2.764v-84.503c0-1.518,1.246-2.759,2.765-2.759h31.295
		C498.479,158.158,499.719,156.915,499.719,155.398"/>
	<path fill="#004C77" d="M275.014,210.291h-27.062c-1.52,0-2.271-1.143-1.671-2.54l14.071-32.655
		c0.604-1.395,1.588-1.395,2.19-0.003l14.138,32.666C277.284,209.148,276.536,210.291,275.014,210.291 M274.659,140.544
		c-0.603-1.395-2.34-2.541-3.857-2.544l-15.391-0.038c-1.521-0.005-3.258,1.132-3.861,2.525l-45.686,105.166
		c-0.606,1.394,0.144,2.531,1.662,2.531h18.574c1.519,0,3.253-1.143,3.854-2.537l5.723-13.279c0.601-1.393,2.335-2.534,3.854-2.534
		h43.943c1.519,0,3.257,1.144,3.859,2.534l5.749,13.283c0.602,1.392,2.339,2.533,3.858,2.533h21.444
		c1.521,0,2.271-1.143,1.668-2.537L274.659,140.544z"/>
	<g opacity="0.2">
		<g>
			<path fill="#FFFFFF" d="M216.067,224.372c9.384,3.3,20.018,5.042,30.747,5.042c11.354,0,22.49-1.928,32.216-5.571
				c0.138-0.052,0.268-0.12,0.388-0.21c8.733-3.268,18.657-5.08,28.831-5.316l-1.379-3.191c-10.184,0.37-20.09,2.279-28.855,5.595
				c-0.133,0.054-0.26,0.12-0.379,0.207c-9.303,3.446-19.956,5.269-30.821,5.269c-10.341,0-20.568-1.672-29.595-4.83l-0.663-0.323
				l-1.286,2.957l0.631,0.306C215.954,224.328,216.011,224.35,216.067,224.372 M92.72,165.816l-1.28,2.968
				c8.784,2.782,18.525,4.266,28.368,4.266c3.495,0,6.965-0.208,10.392-0.571l-0.911-3.14c-3.127,0.312-6.292,0.489-9.48,0.489
				C110.407,169.828,101.112,168.435,92.72,165.816 M164.843,160.473l-1.715,3.634c6.496-1.449,13.372-2.206,20.339-2.206
				c6.366,0,12.653,0.646,18.648,1.859v-3.281c-6.016-1.172-12.295-1.799-18.648-1.799
				C177.119,158.68,170.85,159.304,164.843,160.473 M202.115,191.932v-3.283c-6.016-1.172-12.295-1.801-18.648-1.801
				c-1.824,0-3.638,0.066-5.445,0.168v3.228c1.807-0.103,3.62-0.169,5.445-0.169C189.833,190.073,196.12,190.716,202.115,191.932
				 M88.845,205.473c0.071,0.037,0.143,0.07,0.216,0.096c3.445,1.212,7.061,2.205,10.78,2.986l1.295-3.021
				c-3.765-0.76-7.42-1.749-10.896-2.963l-1.17-0.615c-0.059-0.033-0.119-0.059-0.184-0.082c-3.305-1.243-6.778-2.27-10.353-3.109
				l-1.291,2.998c3.603,0.823,7.096,1.848,10.415,3.09L88.845,205.473z M152.408,204.812c5.576-2.08,11.638-3.562,17.927-4.438
				l1.769-3.467c-7.43,0.857-14.595,2.535-21.124,5.002c-0.144,0.055-0.278,0.129-0.398,0.218c-2.061,0.761-4.195,1.429-6.372,2.027
				l-1.785,3.784c3.299-0.803,6.513-1.758,9.578-2.903C152.147,204.984,152.284,204.905,152.408,204.812 M152.396,195.43
				c-0.121,0.086-0.253,0.16-0.393,0.211c-1.463,0.549-2.964,1.045-4.488,1.518l1.902-4.024c0.388-0.138,0.79-0.26,1.174-0.401
				c0.12-0.086,0.248-0.158,0.387-0.213c7.976-3.018,16.91-4.855,26.137-5.444l-1.697,3.335
				C167.29,191.087,159.456,192.784,152.396,195.43 M202.115,210.714v-3.282c-6.016-1.174-12.294-1.799-18.648-1.799
				c-1.824,0-3.638,0.065-5.445,0.165v3.229c1.808-0.104,3.62-0.172,5.445-0.172C189.836,208.855,196.122,209.498,202.115,210.714
				 M119.808,160.441c-8.074,0-16.072-1.033-23.49-2.983l-1.284,2.988c7.815,2.102,16.257,3.217,24.774,3.217
				c2.595,0,5.179-0.114,7.738-0.314l-0.919-3.168C124.369,160.34,122.094,160.441,119.808,160.441 M202.115,201.322v-3.283
				c-6.019-1.174-12.297-1.799-18.648-1.799c-1.824,0-3.636,0.064-5.445,0.165v3.229c1.808-0.103,3.621-0.171,5.445-0.171
				C189.831,199.463,196.114,200.105,202.115,201.322 M169.662,150.274l-1.656,3.506c5.022-0.827,10.216-1.266,15.46-1.266
				c6.367,0,12.654,0.646,18.649,1.86v-3.28c-6.015-1.174-12.295-1.801-18.649-1.801
				C178.802,149.293,174.175,149.637,169.662,150.274 M88.842,177.305c0.07,0.036,0.144,0.07,0.219,0.094
				c9.37,3.293,20.003,5.033,30.748,5.033c4.396,0,8.76-0.298,13.028-0.867l-0.907-3.125c-3.973,0.509-8.034,0.769-12.121,0.769
				c-10.342,0-20.562-1.659-29.566-4.808l-0.992-0.525l-1.279,2.968L88.842,177.305z M139.726,205.275
				c-6.379,1.392-13.112,2.115-19.917,2.115c-0.872,0-1.743-0.029-2.615-0.055l1.007,3.244c0.536,0.008,1.071,0.031,1.608,0.031
				c7.111,0,14.148-0.768,20.816-2.234L139.726,205.275z M90.236,211.954c2.332,0.819,4.747,1.532,7.227,2.147l-1.287,3
				c-2.437-0.621-4.815-1.332-7.115-2.147c-0.073-0.024-0.138-0.054-0.206-0.087l-1.189-0.616c-4.444-1.67-9.203-2.954-14.141-3.854
				l1.304-3.028c4.9,0.938,9.632,2.231,14.062,3.903c0.059,0.021,0.118,0.049,0.172,0.074L90.236,211.954z M150.979,211.303
				c5.003-1.894,10.382-3.324,15.968-4.277l-1.851,3.633c-4.409,0.875-8.673,2.049-12.676,3.545
				c-0.128,0.095-0.268,0.175-0.419,0.229c-9.364,3.508-20.019,5.402-30.886,5.545l-0.993-3.199
				c10.714-0.036,21.227-1.838,30.446-5.246C150.692,211.436,150.83,211.357,150.979,211.303 M138.048,199.495l-0.904-3.104
				c-5.598,1.047-11.431,1.605-17.335,1.605c-1.862,0-3.716-0.074-5.564-0.182l1.02,3.289c1.51,0.069,3.025,0.113,4.545,0.113
				C126.019,201.218,132.157,200.619,138.048,199.495 M159.888,170.967l-1.809,3.826c7.925-2.288,16.574-3.505,25.387-3.505
				c6.368,0,12.654,0.646,18.65,1.858v-3.28c-6.016-1.172-12.296-1.799-18.65-1.799C175.346,168.067,167.35,169.073,159.888,170.967
				 M88.849,196.082l-1.187-0.617c-2.187-0.82-4.453-1.544-6.771-2.179l1.282-2.981c2.297,0.644,4.545,1.359,6.712,2.18
				c0.063,0.021,0.123,0.048,0.182,0.078l1.169,0.612c4.609,1.613,9.537,2.828,14.637,3.644l-1.307,3.052
				c-5.048-0.849-9.929-2.082-14.507-3.697C88.988,196.148,88.918,196.118,88.849,196.082 M202.115,182.539v-3.281
				c-6.017-1.172-12.295-1.801-18.648-1.801c-10.004,0-19.84,1.499-28.701,4.35l-1.926,4.076c9.269-3.4,19.836-5.201,30.627-5.201
				C189.832,180.682,196.116,181.326,202.115,182.539 M88.851,186.693l-1.188-0.618c-1.044-0.394-2.112-0.759-3.189-1.106
				l1.278-2.968c1.056,0.349,2.107,0.705,3.135,1.092c0.061,0.024,0.122,0.054,0.177,0.079l1.174,0.613
				c5.751,2.011,11.993,3.408,18.44,4.164l-1.323,3.083c-6.385-0.812-12.573-2.237-18.293-4.247
				C88.988,186.758,88.918,186.729,88.851,186.693 M135.45,190.564l-0.903-3.119c-4.801,0.756-9.746,1.158-14.739,1.158
				c-2.865,0-5.718-0.143-8.543-0.393l1.03,3.318c2.49,0.19,4.998,0.295,7.513,0.295C125.11,191.825,130.36,191.387,135.45,190.564
				 M519.299,199.468l1.546-3.586c-6.403,1.4-13.175,2.132-20.029,2.132c-1.589,0-3.172-0.056-4.75-0.133l-1.366,3.145
				c2.031,0.129,4.069,0.211,6.116,0.211C507.112,201.234,513.336,200.621,519.299,199.468 M254.678,210.307h-6.727
				c-1.521,0-2.271-1.141-1.671-2.535l0.161-0.371c-7.791-0.029-15.513-1.012-22.708-2.864l-1.295,2.985
				c7.713,2.031,16.014,3.107,24.375,3.107C249.451,210.629,252.075,210.511,254.678,210.307 M437.03,158.705
				c0.697,0.501,1.156,1.313,1.156,2.23v0.997c8.571,0.064,16.983,1.275,24.712,3.519v-3.355
				c-7.997-2.227-16.664-3.403-25.463-3.403C437.301,158.693,437.166,158.701,437.03,158.705 M504.198,179.157l-1.413,3.249
				c8.882-0.174,17.596-1.524,25.572-3.958l1.437-3.335c0.119-0.279,0.258-0.489,0.403-0.657
				C522.204,177.227,513.32,178.836,504.198,179.157 M462.899,209.046c-7.767-2.162-16.169-3.315-24.713-3.383v3.226
				c8.574,0.065,16.989,1.275,24.713,3.517V209.046z M279.423,204.837c6.458-2.412,13.561-4.021,20.921-4.802l-1.335-3.096
				c-7.381,0.859-14.502,2.529-20.993,4.986c-0.138,0.053-0.267,0.122-0.385,0.209c-0.97,0.357-1.959,0.688-2.954,1.012l1.285,2.97
				c1.034-0.341,2.062-0.688,3.065-1.064C279.169,205,279.302,204.927,279.423,204.837 M469.947,155.003
				c-0.045-0.022-0.091-0.043-0.141-0.06c-9.771-3.685-20.967-5.634-32.371-5.634c-11.438,0-22.67,1.96-32.489,5.669
				c-0.138,0.053-0.268,0.123-0.385,0.211c-1.355,0.504-2.745,0.958-4.155,1.389c0.146,0.938,0.92,1.597,2.054,1.597h3.295
				c0.069-0.023,0.146-0.046,0.215-0.073c0.142-0.054,0.273-0.125,0.396-0.216c9.391-3.504,20.126-5.356,31.071-5.356
				c10.993,0,21.768,1.868,31.164,5.402l0.505,0.244h11.117c-3.094-0.698-6.113-1.537-8.997-2.548L469.947,155.003z
				 M515.722,209.479c-0.257-0.451-0.283-1.049-0.001-1.709l0.713-1.65c-5.072,0.847-10.321,1.289-15.618,1.289
				c-2.92,0-5.829-0.151-8.708-0.412l-1.351,3.102c3.322,0.34,6.684,0.531,10.059,0.531
				C505.86,210.629,510.859,210.227,515.722,209.479 M462.899,199.652c-7.776-2.16-16.179-3.316-24.713-3.379v3.22
				c8.563,0.069,16.979,1.276,24.713,3.518V199.652z M535.009,182.093l1.281,2.97c7.76-2.558,16.382-4.043,25.165-4.315
				l-1.362-3.157C551.335,177.975,542.758,179.511,535.009,182.093 M532.016,173.758c-0.138,0.055-0.266,0.122-0.384,0.209
				c-0.152,0.059-0.312,0.105-0.466,0.159c0.3,0.126,0.586,0.453,0.817,0.983l0.804,1.859c0.083-0.033,0.17-0.057,0.251-0.088
				c0.144-0.051,0.278-0.126,0.398-0.215c7.39-2.771,15.479-4.489,24.05-5.109l-1.347-3.117
				C547.566,169.16,539.452,170.938,532.016,173.758 M532.016,164.374c6.281-2.382,13.091-4.029,20.246-4.919l1.327,3.076
				c-7.146,0.819-13.935,2.415-20.181,4.762c-0.114,0.078-0.238,0.144-0.369,0.193c-7.989,2.99-16.914,4.803-26.103,5.37
				l1.438-3.317c8.198-0.646,16.131-2.328,23.284-4.973C531.771,164.485,531.889,164.422,532.016,164.374 M538.596,190.387
				l1.291,2.979c7.705-2.146,16.078-3.277,24.604-3.277l0.754,0.003h0.008c0.078,0,0.155-0.014,0.232-0.021l-1.382-3.194
				C555.266,186.909,546.585,188.116,538.596,190.387 M246.814,163.676c11.34,0,22.48-1.93,32.217-5.574
				c0.136-0.051,0.263-0.119,0.382-0.207c0.779-0.293,1.582-0.55,2.379-0.82l-1.281-2.969c-0.834,0.284-1.677,0.562-2.494,0.872
				c-0.134,0.053-0.261,0.12-0.377,0.205c-9.318,3.449-19.969,5.271-30.825,5.271c-1.302,0-2.602-0.027-3.898-0.078l-1.366,3.142
				C243.299,163.61,245.054,163.676,246.814,163.676 M246.814,198.014c-6.605,0-13.161-0.688-19.379-2l-1.306,3.008
				c6.631,1.446,13.627,2.215,20.685,2.215c0.771,0,1.537-0.031,2.305-0.049l1.4-3.252
				C249.287,197.982,248.054,198.014,246.814,198.014 M500.815,191.844c7.883,0,15.665-0.953,22.954-2.75l1.613-3.744
				c-7.706,2.141-16.07,3.271-24.567,3.271c-0.24,0-0.48-0.012-0.722-0.014l-1.39,3.189
				C499.409,191.816,500.11,191.844,500.815,191.844 M542.252,198.83l1.298,2.997c6.677-1.536,13.759-2.349,20.938-2.349
				c1.719,0,3.438,0.045,5.115,0.131l-1.418-3.278c-1.227-0.043-2.457-0.076-3.697-0.076
				C556.86,196.255,549.332,197.146,542.252,198.83 M573.8,209.326c-3.061-0.297-6.188-0.455-9.311-0.455
				c-10.948,0-21.668,1.848-31.03,5.348c-0.127,0.098-0.27,0.176-0.419,0.232c-9.745,3.644-20.89,5.566-32.226,5.566
				c-4.703,0-9.374-0.352-13.932-1.004l1.331-3.062c4.128,0.549,8.35,0.845,12.601,0.845c10.837,0,21.476-1.814,30.794-5.252
				c0.124-0.093,0.261-0.171,0.409-0.227c0.943-0.359,1.918-0.687,2.887-1.012h9.553c1.52,0,2.268-1.142,1.664-2.533l-0.151-0.354
				c5.974-1.154,12.209-1.771,18.521-1.771c2.635,0,5.266,0.135,7.869,0.338L573.8,209.326z M302.901,205.952l1.356,3.14
				c-8.759,0.567-17.234,2.297-24.82,5.133c-0.124,0.096-0.262,0.172-0.408,0.228c-9.74,3.644-20.88,5.567-32.214,5.567
				c-9.724,0-19.335-1.437-28.005-4.15l1.29-2.967c8.274,2.547,17.437,3.895,26.715,3.895c10.842,0,21.485-1.814,30.801-5.259
				c0.123-0.089,0.256-0.163,0.401-0.218C285.636,208.436,294.125,206.622,302.901,205.952 M462.899,190.261
				c-7.77-2.157-16.173-3.312-24.713-3.38v3.223c8.571,0.068,16.985,1.275,24.713,3.517V190.261z M511.166,163.115
				c7.695-0.807,15.125-2.486,21.875-5.013c0.14-0.055,0.274-0.126,0.396-0.215c5.101-1.905,10.595-3.312,16.329-4.212l-1.313-3.038
				c-5.762,0.953-11.29,2.395-16.435,4.342c-0.138,0.052-0.268,0.123-0.386,0.209c-5.896,2.181-12.319,3.705-18.989,4.535
				L511.166,163.115z M279.414,195.451c-0.118,0.086-0.249,0.154-0.384,0.206c-2.152,0.81-4.386,1.518-6.662,2.151l-1.292-2.979
				c2.247-0.614,4.443-1.305,6.562-2.088c0.115-0.085,0.242-0.157,0.374-0.205c5.356-2.031,11.151-3.514,17.167-4.461l1.32,3.057
				C290.506,192.021,284.736,193.458,279.414,195.451 M277.669,164.556c0.107-0.077,0.223-0.136,0.344-0.183
				c1.966-0.744,3.997-1.398,6.068-1.999l1.286,2.977c-2.042,0.584-4.05,1.221-5.983,1.95c-0.11,0.076-0.23,0.138-0.356,0.186
				c-9.75,3.649-20.888,5.58-32.213,5.58c-3.091,0-6.17-0.162-9.217-0.448l1.346-3.098c2.604,0.212,5.234,0.324,7.871,0.324
				C257.669,169.844,268.33,168.014,277.669,164.556 M277.639,173.96c-4.396,1.627-9.097,2.875-13.97,3.757l1.311,3.026
				c4.894-0.927,9.62-2.208,14.047-3.861c0.14-0.052,0.269-0.123,0.388-0.208c3.062-1.148,6.28-2.099,9.596-2.886l-1.296-2.998
				c-3.347,0.815-6.604,1.794-9.7,2.967C277.882,173.811,277.755,173.877,277.639,173.96 M235.044,178.5l-1.331,3.062
				c4.295,0.576,8.687,0.887,13.102,0.887c3.578,0,7.129-0.215,10.632-0.592l1.464-3.394c-3.963,0.504-8.017,0.761-12.096,0.761
				C242.851,179.227,238.908,178.98,235.044,178.5 M253.244,191.613l1.428-3.317c-2.597,0.212-5.221,0.323-7.857,0.323
				c-5.281,0-10.531-0.439-15.608-1.285l-1.317,3.03c5.497,0.965,11.193,1.479,16.926,1.479
				C248.968,191.844,251.11,191.753,253.244,191.613 M279.397,186.068c4.199-1.572,8.683-2.793,13.324-3.688l-1.306-3.023
				c-4.665,0.933-9.172,2.188-13.401,3.791c-0.126,0.049-0.248,0.11-0.36,0.192c-3.265,1.21-6.7,2.208-10.246,3.009l1.299,3.002
				c3.566-0.83,7.031-1.853,10.323-3.086C279.16,186.214,279.284,186.152,279.397,186.068 M462.899,180.871
				c-7.771-2.161-16.177-3.316-24.713-3.382v3.222c8.57,0.068,16.982,1.279,24.713,3.52V180.871z M438.187,171.32
				c8.571,0.066,16.985,1.275,24.713,3.518v-3.359c-7.77-2.159-16.173-3.316-24.713-3.379V171.32z M379.016,197.809
				c-0.576,0.342-1.154,0.67-1.733,0.951c0.777-0.38,1.354-0.691,1.8-0.955C379.059,197.805,379.037,197.809,379.016,197.809
				 M343.043,173.755c-0.061-0.032-0.123-0.06-0.188-0.085c-6.108-2.297-12.756-3.918-19.665-4.816v3.257
				c6.474,0.869,12.709,2.391,18.435,4.541l1.185,0.623c0.069,0.039,0.144,0.072,0.219,0.1c1.531,0.534,3.103,1.016,4.692,1.468
				v-3.338c-1.188-0.353-2.361-0.729-3.513-1.132L343.043,173.755z M342.816,196.052l-1.188-0.616
				c-5.728-2.147-11.964-3.672-18.438-4.539v-3.258c6.908,0.896,13.557,2.517,19.665,4.817c0.06,0.021,0.12,0.048,0.178,0.079
				l1.17,0.611c9.005,3.153,19.228,4.818,29.572,4.818c1.707,0,3.405-0.057,5.1-0.146c-0.524,0.324-1.052,0.644-1.595,0.937v0.004
				c0.508,0.739,1.051,1.505,1.607,2.286c-1.696,0.085-3.401,0.146-5.112,0.146c-10.748,0-21.38-1.744-30.75-5.045
				C342.954,196.121,342.884,196.091,342.816,196.052 M323.191,153.338c6.479,0.869,12.711,2.39,18.438,4.541l1.186,0.621
				c0.067,0.036,0.139,0.065,0.213,0.093c1.531,0.536,3.102,1.016,4.693,1.468v-1.928h5.456c-3.087-0.698-6.098-1.535-8.973-2.541
				l-1.169-0.613c-0.059-0.028-0.117-0.058-0.18-0.083c-6.104-2.297-12.758-3.921-19.666-4.815L323.191,153.338L323.191,153.338z
				 M373.777,160.41c-2.665,0-5.321-0.114-7.953-0.332c1.725,0.884,3.113,2.046,4.08,3.475c1.288,0.05,2.579,0.077,3.873,0.077
				c7.646,0,15.192-0.897,22.294-2.59c-0.266-1.063-0.586-2.088-0.962-3.083C388.317,159.561,381.096,160.41,373.777,160.41
				 M343.035,164.368l1.17,0.614c1.153,0.404,2.326,0.779,3.516,1.133v3.34c-1.591-0.457-3.164-0.935-4.693-1.473
				c-0.073-0.028-0.144-0.06-0.212-0.091l-1.186-0.623c-5.729-2.151-11.966-3.674-18.438-4.544v-3.257
				c6.905,0.895,13.558,2.519,19.665,4.82C342.919,164.311,342.979,164.339,343.035,164.368 M347.722,213.066
				c-1.19-0.355-2.365-0.733-3.52-1.137l-1.172-0.611c-0.056-0.026-0.116-0.055-0.173-0.076c-6.105-2.303-12.757-3.928-19.667-4.824
				v3.26c6.479,0.869,12.714,2.396,18.441,4.547l1.187,0.614c0.068,0.037,0.135,0.063,0.208,0.091
				c1.529,0.54,3.102,1.022,4.694,1.477L347.722,213.066L347.722,213.066z M385.565,209.866c-3.873,0.466-7.818,0.72-11.788,0.72
				c-5.924,0-11.812-0.554-17.492-1.587c-0.231-0.34-0.475-0.687-0.703-1.024c-1.708-2.513-4.731-2.242-4.731-2.242
				s-1.991,0.033-2.796,1.371c-1.703-0.479-3.388-0.987-5.024-1.562c-0.074-0.023-0.146-0.059-0.218-0.096l-1.183-0.62
				c-5.732-2.147-11.969-3.669-18.438-4.538v-3.26c6.9,0.896,13.554,2.519,19.665,4.817c0.062,0.022,0.122,0.05,0.181,0.082
				l1.17,0.613c9.035,3.157,19.259,4.824,29.569,4.824c3.175,0,6.329-0.177,9.442-0.486
				C383.973,207.857,384.757,208.854,385.565,209.866 M390.081,215.348c-5.285,0.924-10.769,1.406-16.306,1.406
				c-4.28,0-8.53-0.3-12.688-0.857c0.839,1.177,1.696,2.356,2.564,3.543c3.34,0.344,6.723,0.535,10.123,0.535
				c6.38,0,12.688-0.632,18.732-1.815C391.681,217.214,390.869,216.275,390.081,215.348 M368.636,179.029
				c-0.845,1.154-1.853,2.173-3.049,3.033c2.711,0.227,5.445,0.34,8.189,0.34c7.039,0,14.005-0.745,20.609-2.182
				c0.52-1.188,0.955-2.404,1.329-3.634c-6.974,1.696-14.404,2.595-21.938,2.595C372.057,179.182,370.345,179.12,368.636,179.029
				 M373.777,173.021c7.938,0,15.778-0.97,23.125-2.798c0.038-0.546,0.08-1.091,0.08-1.636c0-0.569-0.016-1.128-0.042-1.684
				c-7.324,1.9-15.193,2.897-23.163,2.897c-0.769,0-1.531-0.027-2.293-0.047c-0.035,1.135-0.137,2.211-0.317,3.217
				C372.033,172.991,372.903,173.021,373.777,173.021 M342.816,186.666l-1.187-0.618c-5.729-2.149-11.966-3.675-18.438-4.544v-3.257
				c6.904,0.894,13.557,2.521,19.665,4.819c0.061,0.022,0.12,0.049,0.178,0.082l1.17,0.608c1.153,0.403,2.328,0.78,3.519,1.134v1.28
				h0.912c1.203,0,2.353-0.049,3.474-0.118c6.898,1.651,14.252,2.522,21.669,2.522c5.765,0,11.462-0.529,16.946-1.532
				c-0.96,1.331-2.037,2.579-3.185,3.777c-4.501,0.637-9.111,0.977-13.763,0.977c-10.731,0-21.365-1.744-30.75-5.04
				C342.954,186.732,342.885,186.701,342.816,186.666 M149.326,240.131c-2.009,0.7-4.062,1.342-6.174,1.895l3.979-0.574
				C147.801,241.357,148.622,240.76,149.326,240.131 M178.022,224.595v3.229c1.808-0.104,3.62-0.174,5.445-0.174
				c6.37,0,12.655,0.646,18.649,1.858v-3.28c-6.016-1.172-12.293-1.799-18.649-1.799
				C181.644,224.43,179.829,224.494,178.022,224.595 M89.064,230.146c-0.057-0.03-0.115-0.057-0.175-0.082
				c-6.688-2.52-14.046-4.209-21.671-5.035l-1.333,3.094c7.674,0.755,15.076,2.409,21.778,4.925l1.189,0.615
				c0.06,0.033,0.121,0.06,0.183,0.083l1.273-2.969c-0.024-0.008-0.05-0.016-0.071-0.022L89.064,230.146z M202.115,238.896v-3.282
				c-6.016-1.169-12.295-1.796-18.648-1.796c-1.824,0-3.638,0.066-5.445,0.164v3.229c1.808-0.101,3.62-0.172,5.445-0.172
				C189.836,237.04,196.122,237.688,202.115,238.896 M178.022,215.206v3.229c1.808-0.104,3.62-0.172,5.445-0.172
				c6.374,0,12.657,0.644,18.649,1.855v-3.281c-6.013-1.175-12.291-1.799-18.649-1.799
				C181.644,215.039,179.829,215.107,178.022,215.206 M150.579,230.316c-7.541,2.791-15.978,4.49-24.691,5.039l0.982,3.164
				c8.864-0.629,17.445-2.414,25.134-5.299c0.143-0.055,0.28-0.129,0.405-0.221c0.513-0.193,1.048-0.361,1.568-0.543l2.072-4.062
				c-1.723,0.522-3.424,1.076-5.071,1.7C150.837,230.15,150.701,230.225,150.579,230.316 M183.467,243.2
				c-1.824,0-3.637,0.067-5.444,0.166v2.05c0,0.417,0.099,0.807,0.265,1.161c1.72-0.093,3.444-0.155,5.18-0.155
				c5.771,0,11.48,0.53,16.972,1.534c0.982-0.423,1.676-1.404,1.676-2.54v-0.412C196.097,243.826,189.818,243.2,183.467,243.2
				 M63.322,234.072l-1.353,3.14c8.29,0.47,16.334,2.001,23.646,4.507l1.271-2.967C79.586,236.223,71.578,234.636,63.322,234.072
				 M59.368,243.259l-1.032,2.396c-0.124,0.279-0.176,0.547-0.192,0.801c5.619,0.095,11.168,0.681,16.5,1.729h5.432
				c1.019,0,2.126-0.52,2.932-1.276C75.573,244.736,67.549,243.497,59.368,243.259 M124.016,229.318
				c9.864-0.418,19.465-2.291,27.987-5.481c0.143-0.054,0.277-0.128,0.398-0.218c2.343-0.878,4.769-1.649,7.262-2.312l1.929-3.783
				c-3.674,0.854-7.233,1.908-10.614,3.188c-0.14,0.055-0.271,0.128-0.392,0.215c-8.382,3.104-17.845,4.869-27.563,5.192
				L124.016,229.318z M87.663,223.657l1.188,0.616c0.067,0.035,0.139,0.064,0.21,0.094c1.15,0.402,2.321,0.781,3.506,1.138
				l1.277-2.979c-1.219-0.36-2.427-0.748-3.609-1.159l-1.172-0.61c-0.057-0.031-0.115-0.054-0.173-0.08
				c-5.559-2.099-11.585-3.609-17.843-4.546l-1.318,3.062C76.03,220.07,82.092,221.562,87.663,223.657 M323.191,219.127v-3.257
				c6.912,0.896,13.565,2.521,19.667,4.821c0.059,0.021,0.117,0.05,0.173,0.08l1.172,0.605c1.154,0.404,2.33,0.78,3.52,1.135v3.338
				c-1.593-0.451-3.162-0.935-4.694-1.471c-0.068-0.023-0.141-0.054-0.208-0.091l-1.187-0.615
				C335.908,221.521,329.673,219.997,323.191,219.127 M340.936,248.188c-5.579-1.938-11.555-3.348-17.744-4.154v1.391
				c0,0.788,0.338,1.494,0.87,2c1.512,0.219,3.008,0.473,4.488,0.766h12.386V248.188z M423.373,247.495
				c-1.154-0.896-2.3-1.796-3.429-2.708c-4.505,0.818-8.854,1.965-12.984,3.4h12.381
				C420.672,247.93,422.016,247.695,423.373,247.495 M373.777,226.2c-1.723,0-3.441-0.063-5.151-0.155
				c0.872,1.114,1.771,2.221,2.673,3.327c0.827,0.022,1.65,0.05,2.479,0.05c8.925,0,17.711-1.211,25.798-3.497
				c-0.846-0.886-1.668-1.769-2.483-2.646C389.74,225.197,381.818,226.2,373.777,226.2 M379.37,238.629
				c9.387-0.525,18.489-2.35,26.6-5.388c0.146-0.058,0.282-0.132,0.406-0.224c0.062-0.024,0.134-0.049,0.199-0.072
				c-0.849-0.813-1.681-1.631-2.505-2.449c-8.391,3.04-17.841,4.756-27.553,5.027C377.448,236.573,378.408,237.604,379.37,238.629
				 M347.722,241.793h-0.002v2.835c-1.592-0.455-3.166-0.938-4.692-1.474c-0.073-0.025-0.142-0.059-0.208-0.096l-1.187-0.61
				c-5.729-2.151-11.964-3.673-18.441-4.541v-3.257c6.908,0.893,13.562,2.516,19.666,4.814c0.058,0.021,0.118,0.046,0.174,0.08
				l1.172,0.605c1.153,0.404,2.328,0.783,3.52,1.138L347.722,241.793L347.722,241.793z M411.355,237.405
				c0.942,0.854,1.896,1.704,2.861,2.548c-2.701,0.701-5.333,1.516-7.856,2.462c-0.121,0.086-0.252,0.158-0.391,0.209
				c-5.351,2.004-11.134,3.471-17.132,4.399c-1.115-0.469-2.231-1.119-3.203-2.039c-0.233-0.221-0.451-0.455-0.685-0.678
				c6.896-0.809,13.54-2.351,19.616-4.597c0.114-0.087,0.244-0.155,0.378-0.207C407.021,238.718,409.165,238.031,411.355,237.405
				 M343.031,230.161c-0.056-0.03-0.114-0.056-0.173-0.08c-6.106-2.304-12.758-3.924-19.667-4.822v3.259
				c6.479,0.868,12.714,2.396,18.441,4.547l1.188,0.614c0.066,0.036,0.134,0.065,0.207,0.095c1.529,0.535,3.104,1.016,4.694,1.473
				v-3.34c-1.19-0.355-2.365-0.733-3.52-1.137L343.031,230.161z M438.187,218.282c8.579,0.067,16.993,1.274,24.713,3.519v-3.357
				c-7.762-2.161-16.165-3.316-24.713-3.379V218.282z M214.595,233.062c-0.927-0.35-1.881-0.668-2.834-0.986l1.288-2.962
				c0.925,0.312,1.849,0.618,2.752,0.959c0.045,0.019,0.088,0.036,0.132,0.057l1.286,0.622c5.437,1.905,11.324,3.257,17.413,4.037
				l-1.322,3.066c-6.018-0.83-11.845-2.195-17.242-4.096c-0.056-0.019-0.112-0.043-0.166-0.066L214.595,233.062z M205.808,245.824
				c-0.47,1.311,0.263,2.355,1.718,2.355h6.362C211.277,247.273,208.58,246.486,205.808,245.824 M532.018,220.719
				c-0.14,0.057-0.271,0.126-0.388,0.213c-9.31,3.442-19.956,5.262-30.813,5.262c-5.569,0-11.1-0.5-16.434-1.441l-1.316,3.032
				c5.753,1.063,11.73,1.63,17.75,1.63c11.352,0,22.497-1.926,32.227-5.57c0.145-0.052,0.275-0.127,0.398-0.218
				c9.36-3.506,20.091-5.354,31.05-5.354c4.591,0,9.164,0.323,13.596,0.961l-1.483-3.435c-3.973-0.487-8.035-0.752-12.111-0.752
				C553.036,215.045,541.809,217.007,532.018,220.719 M499.397,245.648l0.304-0.707c-7.85-0.09-15.591-1.137-22.759-3.062
				l-1.295,2.983c6.542,1.795,13.541,2.89,20.682,3.211C497.618,247.775,498.897,246.803,499.397,245.648 M532.797,229.831
				c9.605-3.521,20.537-5.396,31.692-5.396c5.581,0,11.097,0.489,16.447,1.4l1.516,3.506c-0.045-0.007-0.091-0.005-0.137-0.012
				c-5.764-1.109-11.76-1.672-17.826-1.672c-6.929,0-13.762,0.742-20.221,2.173H532.797z M316.425,237.25l-1.432-3.32
				c-1.497-0.064-2.995-0.104-4.5-0.104c-7.364,0-14.634,0.823-21.495,2.387l1.3,3.001c6.451-1.422,13.279-2.166,20.195-2.166
				C312.483,237.046,314.459,237.13,316.425,237.25 M561.495,243.271l1.027,2.375c0.124,0.283,0.304,0.556,0.511,0.812
				c0.487-0.008,0.971-0.029,1.457-0.029c6.168,0,12.318,0.601,18.188,1.754h5.146c1.179,0,1.888-0.693,1.866-1.652
				c-7.96-2.199-16.412-3.322-25.201-3.322C563.489,243.208,562.493,243.241,561.495,243.271 M292.729,244.832l0.354,0.816
				c0.361,0.836,1.134,1.574,2.02,2.037c5.001-0.819,10.171-1.256,15.392-1.256c3.269,0,6.515,0.185,9.714,0.512
				c0.089-0.383,0.051-0.819-0.154-1.293l-0.89-2.061c-2.864-0.249-5.761-0.381-8.67-0.381
				C304.453,243.208,298.478,243.77,292.729,244.832 M462.899,227.833c-7.767-2.161-16.169-3.317-24.713-3.382v3.222
				c8.574,0.068,16.989,1.275,24.713,3.519V227.833z M438.187,243.221v2.197c0,0.366,0.073,0.712,0.204,1.031
				c5.837,0.059,11.601,0.646,17.13,1.732h4.618c1.119,0,2.086-0.681,2.519-1.644C454.948,244.414,446.631,243.287,438.187,243.221
				 M557.521,234.088l1.358,3.141c1.861-0.105,3.729-0.183,5.609-0.183c7.683,0,15.178,0.896,22.282,2.652
				c0.054,0.013,0.106,0.013,0.163,0.022l-1.58-3.656c-6.7-1.48-13.705-2.24-20.865-2.24
				C562.152,233.824,559.828,233.928,557.521,234.088 M312.3,227.697c-0.604-0.014-1.199-0.038-1.807-0.038
				c-8.427,0-16.715,1.104-24.364,3.205c-0.773-0.622-1.751-1.033-2.655-1.033h-4.68c9.618-3.521,20.552-5.396,31.699-5.396
				c0.136,0,0.268,0.008,0.402,0.011L312.3,227.697z M480.628,233.396l-1.305,3.002c6.866,1.566,14.145,2.398,21.491,2.398
				c0.52,0,1.03-0.023,1.545-0.035l1.399-3.248c-0.979,0.026-1.961,0.061-2.944,0.061
				C493.915,235.574,487.087,234.818,480.628,233.396 M438.187,233.84v3.223c8.573,0.066,16.986,1.275,24.713,3.516v-3.357
				C455.131,235.059,446.728,233.906,438.187,233.84 M230.833,243.611c-4.739-0.811-9.321-1.967-13.613-3.479l-1.287-0.622
				c-0.045-0.019-0.088-0.038-0.134-0.055c-2.052-0.772-4.179-1.453-6.344-2.071l-1.292,2.979c2.199,0.615,4.355,1.302,6.435,2.082
				l1.303,0.629c0.054,0.023,0.109,0.049,0.165,0.07c4.196,1.48,8.658,2.625,13.265,3.465c0.262-0.301,0.479-0.625,0.624-0.961
				L230.833,243.611z"/>
		</g>
	</g>
	<text transform="matrix(1 0 0 1 8.1438 320.2129)" fill="#102D4B" font-family="'Palatino-Roman'" font-size="74.1187">Destino del Mundo</text>
	<text transform="matrix(1 0 0 1 71.6028 388.0469)" fill="#102D4B" font-family="'Palatino-Roman'" font-size="66.2195">Destino de Todos</text>
</g>
</svg>
